<?xml version="1.0" encoding="UTF-8"?>
<svg id="Layer_2" data-name="Layer 2" xmlns="http://www.w3.org/2000/svg" xmlns:xlink="http://www.w3.org/1999/xlink" viewBox="0 0 21 21">
  <defs>
    <style>
      .cls-1 {
        fill: none;
        stroke: #f7f2e8;
      }

      .cls-2 {
        fill: url(#radial-gradient);
      }
    </style>
    <radialGradient id="radial-gradient" cx="17.63" cy="3.53" fx="17.63" fy="3.53" r="19.67" gradientUnits="userSpaceOnUse">
      <stop offset="0" stop-color="#3e7d54"/>
      <stop offset="1" stop-color="#1f452c"/>
    </radialGradient>
  </defs>
  <g id="Layer_1-2" data-name="Layer 1">
    <circle class="cls-2" cx="10.5" cy="10.5" r="10"/>
    <circle class="cls-1" cx="10.5" cy="10.5" r="10"/>
    <path d="M15.95,14.08c-.63.65-1.66,1.19-2.74,1.19-.13,0-.25-.02-.38-.04-.67-.13-1.17-.58-1.51-1.22-.27.2-.7.54-1.06.7-.81.38-1.58.58-2.3.58-1.8,0-3.13-1.22-3.13-3.58,0-.38.04-.77.11-1.21.23-1.37.99-2.74,1.98-3.65.81-.74,1.8-1.13,2.74-1.13s1.8.4,2.32,1.22c.43.74.7,2.11.99,4,.27-.52.49-1.13.65-1.8.07-.27.09-.5.09-.72,0-.52-.13-.94-.13-1.41,0-.09,0-.2.02-.31.09-.56.43-.99,1.04-.99h.04c.56.02.9.61.9,1.21,0,.14-.02.29-.05.43-.52,1.8-1.33,3.6-2.27,4.88.31,1.33.97,1.84,1.62,1.84.31,0,.63-.13.9-.32.11-.05.22-.11.29-.11.04,0,.05,0,.07.04s.05.07.05.11c0,.05-.07.14-.23.31ZM10.65,11.49c-.16-2.03-.07-3.55-.36-4.32-.14-.4-.41-.58-.72-.58-.27,0-.56.14-.81.41-.68.72-1.31,2.21-1.46,3.57-.04.29-.05.56-.05.83,0,1.67.7,2.58,1.75,2.58.31,0,.67-.09,1.03-.25.34-.16.61-.36.92-.58-.13-.45-.23-1.01-.29-1.66Z"/>
  </g>
</svg>