<?xml version="1.0" encoding="UTF-8"?>
<svg xmlns="http://www.w3.org/2000/svg" xmlns:xlink="http://www.w3.org/1999/xlink" viewBox="0 0 21 21">
  <defs>
    <style>
      .cls-1 {
        fill: none;
        stroke: #f7f2e8;
      }

      .cls-2 {
        fill: url(#radial-gradient);
      }

      .cls-3 {
        fill: url(#radial-gradient-2);
      }
    </style>
    <radialGradient id="radial-gradient" cx="17.6313" cy="3.5323" fx="17.6313" fy="3.5323" r="19.674" gradientUnits="userSpaceOnUse">
      <stop offset="0" stop-color="#3e7d54"/>
      <stop offset="1" stop-color="#1f452c"/>
    </radialGradient>
    <radialGradient id="radial-gradient-2" cx="10.5" cy="10.5" fx="10.5" fy="10.5" r="9.5" gradientUnits="userSpaceOnUse">
      <stop offset="0" stop-color="#f4a261" stop-opacity="0"/>
      <stop offset=".1363" stop-color="#f19f5e" stop-opacity=".0331"/>
      <stop offset=".3017" stop-color="#e89858" stop-opacity=".1289"/>
      <stop offset=".4821" stop-color="#da8c4e" stop-opacity=".2873"/>
      <stop offset=".6733" stop-color="#c67b3f" stop-opacity=".5085"/>
      <stop offset=".8708" stop-color="#ad662d" stop-opacity=".7894"/>
      <stop offset="1" stop-color="#9b5620"/>
    </radialGradient>
  </defs>
  <g id="agri-world">
    <circle class="cls-2" cx="10.5" cy="10.5" r="10"/>
  </g>
  <g id="Layer_13" data-name="Layer 13">
    <path id="abattoir" class="cls-3" d="M10.5,1C5.2617,1,1,5.2617,1,10.5s4.2617,9.5,9.5,9.5,9.5-4.2617,9.5-9.5S15.7383,1,10.5,1Z"/>
    <path d="M15.9468,14.0825c-.6304.6484-1.6567,1.1885-2.7368,1.1885-.126,0-.252-.0176-.3784-.0361-.666-.126-1.1699-.5762-1.5122-1.2236-.27.1973-.7021.54-1.0625.7021-.8101.3779-1.5845.5762-2.3047.5762-1.8003,0-3.1328-1.2246-3.1328-3.583,0-.3789.0361-.7744.1079-1.207.2344-1.3682.9902-2.7363,1.981-3.6543.8101-.7383,1.8003-1.1348,2.7368-1.1348.936,0,1.8003.3965,2.3223,1.2246.4326.7383.7026,2.1064.9907,3.9971.27-.5225.4858-1.1348.6479-1.8008.0723-.2705.0898-.5039.0898-.7197,0-.5225-.126-.9365-.126-1.4053,0-.0898,0-.1973.0181-.3057.0903-.5586.4321-.9902,1.0444-.9902h.0361c.5581.0176.9004.6123.9004,1.2061,0,.1445-.0181.2881-.0542.4326-.522,1.8008-1.3325,3.6006-2.2686,4.8789.3062,1.333.9722,1.8369,1.6201,1.8369.3062,0,.6304-.126.9004-.3242.1079-.0537.2163-.1084.2881-.1084.0361,0,.0542,0,.0723.0361s.0537.0723.0537.1084c0,.0537-.0718.1436-.2339.3057ZM10.6533,11.4897c-.1621-2.0342-.0723-3.5469-.3604-4.3213-.144-.3955-.4141-.5762-.7202-.5762-.27,0-.5581.1445-.8101.4141-.6841.7207-1.3145,2.2148-1.4585,3.5654-.0361.2881-.0542.5586-.0542.8281,0,1.6748.7021,2.5752,1.7466,2.5752.3062,0,.666-.0898,1.0264-.252.3423-.1621.6123-.3604.9185-.5762-.1265-.4502-.2344-1.0088-.2881-1.6572Z"/>
  </g>
  <g id="Layer_12" data-name="Layer 12">
    <circle id="generic" class="cls-1" cx="10.5" cy="10.5" r="10"/>
  </g>
</svg>