<?xml version="1.0" encoding="UTF-8"?>
<svg id="Layer_2" data-name="Layer 2" xmlns="http://www.w3.org/2000/svg" xmlns:xlink="http://www.w3.org/1999/xlink" viewBox="0 0 21 21">
  <defs>
    <style>
      .cls-1 {
        fill: none;
        stroke: #f7f2e8;
      }

      .cls-2 {
        fill: url(#radial-gradient);
      }
    </style>
    <radialGradient id="radial-gradient" cx="15.38" cy="2.69" fx="15.38" fy="2.69" r="20.76" gradientUnits="userSpaceOnUse">
      <stop offset="0" stop-color="#705775"/>
      <stop offset="1" stop-color="#332536"/>
    </radialGradient>
  </defs>
  <g id="Layer_1-2" data-name="Layer 1">
    <circle class="cls-2" cx="10.5" cy="10.5" r="10"/>
    <circle class="cls-1" cx="10.5" cy="10.5" r="10"/>
    <path d="M13.94,8.69h-.13c-.67,0-.99-.32-.99-.86,0-.11.02-.22.04-.32.02-.07.02-.16.02-.23,0-.47-.36-.76-1.06-.76-.77,0-1.71.54-1.89,1.48-.04.14-.04.29-.04.43,0,.85.5,1.39,1.39,1.39h.61c.11,0,.18.05.18.22,0,.05-.02.13-.04.22-.05.29-.13.34-.29.34h-.85c-1.12,0-2.03.79-2.2,1.91-.02.11-.02.22-.02.32,0,.88.54,1.62,1.75,1.62s2.02-.43,2.14-1.51c.07-.52.5-.9,1.13-.9.09,0,.18,0,.27.02.5.09.74.43.74.83,0,.16-.05.34-.13.52-.49,1.15-2.2,1.89-4.66,1.89-2.18,0-3.76-.9-3.76-2.43,0-.14.02-.27.04-.41.2-1.21,1.35-2.05,2.61-2.32-.74-.16-1.33-.67-1.33-1.57,0-.16.02-.34.05-.54.29-1.37,2.12-2.29,3.96-2.29,2.16,0,3.28.81,3.35,1.76v.14c0,.59-.31,1.04-.9,1.06Z"/>
  </g>
</svg>