<?xml version="1.0" encoding="UTF-8"?>
<svg id="Layer_2" data-name="Layer 2" xmlns="http://www.w3.org/2000/svg" xmlns:xlink="http://www.w3.org/1999/xlink" viewBox="0 0 21 21">
  <defs>
    <style>
      .cls-1 {
        fill: none;
        stroke: #f7f2e8;
      }

      .cls-2 {
        fill: url(#radial-gradient);
      }
    </style>
    <radialGradient id="radial-gradient" cx="16.28" cy="2.76" fx="16.28" fy="2.76" r="19.73" gradientUnits="userSpaceOnUse">
      <stop offset="0" stop-color="#517fa4"/>
      <stop offset="1" stop-color="#243b55"/>
    </radialGradient>
  </defs>
  <g id="Layer_1-2" data-name="Layer 1">
    <circle class="cls-2" cx="10.5" cy="10.5" r="10"/>
    <circle class="cls-1" cx="10.5" cy="10.5" r="10"/>
    <path d="M11.18,16.35c-.07.2-.43.31-1.21.31s-1.08-.14-1.08-.29c0-.02.02-.04.02-.05.67-1.94.85-3.15.85-4.2v-.14c0-3.67-1.4-6.82-2.79-6.86h-.07c-.31,0-.52.07-.67.07-.05,0-.11-.02-.14-.07-.02-.04-.02-.05-.02-.09,0-.13.13-.25.29-.36.32-.22.72-.31,1.28-.31h.16c1.49.04,2.88,2.27,3.33,5.15.7-2.25,1.1-3.38,1.57-4.9.07-.22.36-.27,1.15-.27.74,0,1.08.14,1.08.31v.04c-.97,3.02-2.84,8.82-3.75,11.67Z"/>
  </g>
</svg>