<?xml version="1.0" encoding="UTF-8"?>
<svg id="Layer_2" data-name="Layer 2" xmlns="http://www.w3.org/2000/svg" xmlns:xlink="http://www.w3.org/1999/xlink" viewBox="0 0 21 21">
  <defs>
    <style>
      .cls-1 {
        fill: none;
        stroke: #f7f2e8;
      }

      .cls-2 {
        fill: url(#radial-gradient);
      }
    </style>
    <radialGradient id="radial-gradient" cx="16.73" cy="3.73" fx="16.73" fy="3.73" r="18.67" gradientUnits="userSpaceOnUse">
      <stop offset="0" stop-color="#5a5a5a"/>
      <stop offset="1" stop-color="#2d2d2d"/>
    </radialGradient>
  </defs>
  <g id="Layer_1-2" data-name="Layer 1">
    <circle class="cls-2" cx="10.5" cy="10.5" r="10"/>
    <circle class="cls-1" cx="10.5" cy="10.5" r="10"/>
    <path d="M14.82,7.03h-.13c-.58,0-1.08-.36-1.08-.9,0-.14.04-.31.11-.47.09-.18.14-.36.14-.52,0-.43-.36-.74-1.08-.74-1.58,0-2.3.63-2.48,1.4-.02.11-.04.22-.04.32,0,1.01,1.12,1.6,2.7,2.61,1.35.85,2.34,2.25,2.34,3.82,0,.27-.04.52-.09.79-.59,2.88-2.79,4.07-5.8,4.07-2.48,0-4.18-1.48-4.18-3.75,0-.29.04-.59.09-.92.34-1.82,1.91-3.33,4.02-4.03-.76-.5-1.39-1.44-1.39-2.39,0-.18.04-.34.07-.52.36-1.53,2.14-2.23,4.52-2.23,1.98,0,3.19,1.04,3.2,2.14,0,.76-.27,1.26-.94,1.31ZM11.53,10.49c-.4-.31-.74-.65-1.21-1.01-1.24.56-2.3,1.93-2.56,3.62-.05.32-.07.63-.07.92,0,1.73.88,2.61,1.91,2.61,1.75,0,2.68-1.08,3.02-3.3.04-.16.04-.32.04-.49,0-.9-.41-1.73-1.13-2.36Z"/>
  </g>
</svg>