<?xml version="1.0" encoding="UTF-8"?>
<svg id="Layer_2" data-name="Layer 2" xmlns="http://www.w3.org/2000/svg" xmlns:xlink="http://www.w3.org/1999/xlink" viewBox="0 0 21 21">
  <defs>
    <style>
      .cls-1 {
        fill: none;
        stroke: #f7f2e8;
      }

      .cls-2 {
        fill: url(#radial-gradient);
      }
    </style>
    <radialGradient id="radial-gradient" cx="15.06" cy="2.5" fx="15.06" fy="2.5" r="20.08" gradientUnits="userSpaceOnUse">
      <stop offset="0" stop-color="#9e2a2b"/>
      <stop offset="1" stop-color="#4a0e10"/>
    </radialGradient>
  </defs>
  <g id="Layer_1-2" data-name="Layer 1">
    <circle class="cls-2" cx="10.5" cy="10.5" r="10"/>
    <circle class="cls-1" cx="10.5" cy="10.5" r="10"/>
    <g>
      <path d="M10.65,7.02h-.13c-.58,0-1.08-.36-1.08-.9,0-.14.04-.31.11-.47.09-.18.14-.36.14-.52,0-.43-.36-.74-1.08-.74-1.58,0-2.3.63-2.48,1.4-.02.11-.04.22-.04.32,0,1.01,1.12,1.6,2.7,2.61,1.35.85,2.34,2.25,2.34,3.82,0,.27-.04.52-.09.79-.59,2.88-2.79,4.07-5.8,4.07-2.48,0-4.18-1.48-4.18-3.75,0-.29.04-.59.09-.92.34-1.82,1.91-3.33,4.02-4.03-.76-.5-1.39-1.44-1.39-2.39,0-.18.04-.34.07-.52.36-1.53,2.14-2.23,4.52-2.23,1.98,0,3.19,1.04,3.2,2.14,0,.76-.27,1.26-.94,1.31ZM7.35,10.48c-.4-.31-.74-.65-1.21-1.01-1.24.56-2.3,1.93-2.56,3.62-.05.32-.07.63-.07.92,0,1.73.88,2.61,1.91,2.61,1.75,0,2.68-1.08,3.02-3.3.04-.16.04-.32.04-.49,0-.9-.41-1.73-1.13-2.36Z"/>
      <path d="M19.7,8.81c-.54,0-1.62,0-2.41-.02-.2.92-.54,2.41-.92,4.21-.23,1.1-.38,1.94-.56,2.75-.04.16-.05.31-.05.41,0,.23.09.34.38.34.22,0,.52-.09.68-.18.07-.04.13-.04.18-.04.09,0,.14.05.14.13,0,.09-.07.22-.23.34-.22.2-1.13.67-2.05.67-1.06,0-1.71-.43-1.71-1.13,0-.09.02-.18.04-.27.27-1.19.41-1.94.67-3.04.36-1.75.68-3.24.88-4.2-.27,0-.92.02-1.44.02-.36.02-.47.14-.59.34-.22.29-.54.72-.77,1.12-.07.13-.11.18-.27.18-.14-.02-.2-.05-.2-.18,0-.04,0-.09.02-.14.11-.41.25-1.48.31-1.89.02-.16.05-.23.23-.23h.07c.43.02,1.03.05,1.6.05h2.56c.94,0,2.38-.04,3.56-.05.07,0,.13.13.13.32v.09c-.04.23-.11.4-.23.4Z"/>
    </g>
  </g>
</svg>