<?xml version="1.0" encoding="UTF-8"?>
<svg id="Layer_2" data-name="Layer 2" xmlns="http://www.w3.org/2000/svg" xmlns:xlink="http://www.w3.org/1999/xlink" viewBox="0 0 21 21">
  <defs>
    <style>
      .cls-1 {
        fill: none;
        stroke: #f7f2e8;
      }

      .cls-2 {
        fill: url(#radial-gradient);
      }
    </style>
    <radialGradient id="radial-gradient" cx="15.64" cy="3.6" fx="15.64" fy="3.6" r="19.14" gradientUnits="userSpaceOnUse">
      <stop offset="0" stop-color="#a3b18a"/>
      <stop offset="1" stop-color="#4a5538"/>
    </radialGradient>
  </defs>
  <g id="Layer_1-2" data-name="Layer 1">
    <circle class="cls-2" cx="10.5" cy="10.5" r="10"/>
    <circle class="cls-1" cx="10.5" cy="10.5" r="10"/>
    <g>
      <path d="M11.08,11.17c-.47,2.81-2.7,4.68-5.65,4.75l-.54,2.74c-.04.18-.18.22-.38.22h-.16c-.27-.02-.5-.04-.5-.2v-.05l.54-2.68c-2.23-.07-3.83-1.66-3.83-3.91,0-.27.02-.56.07-.85.41-2.59,2.86-4.7,5.6-4.74l.77-4.14c.04-.13.11-.16.34-.16h.18c.34.02.5.05.5.2v.04l-.77,4.07c2.25.09,3.91,1.67,3.91,3.92,0,.25-.04.52-.07.79ZM3,11.45c-.05.31-.07.59-.07.86,0,1.42.63,2.49,1.62,2.74l1.49-7.72c-1.46.23-2.65,1.73-3.04,4.12ZM7.08,7.28l-1.5,7.76c1.71-.27,2.77-1.67,3.1-4.14.04-.22.04-.45.04-.67,0-1.46-.61-2.67-1.64-2.95Z"/>
      <path d="M20.18,15.34c-.36.27-1.48.61-2.3.61-.95,0-1.73-.47-1.8-1.69-.09-1.24-.31-4.59-.4-5.87-.99,1.48-3.1,4.68-4.75,7.29-.16.23-.34.29-.76.29-.31,0-.45-.05-.45-.18,0-.05.04-.14.11-.23,1.87-2.84,4.41-6.64,5.64-8.52-.04-.61-.2-2.03-.29-3.08-.07-.65-.43-1.08-1.35-1.08-.18,0-.58.09-.86.23-.09.05-.16.09-.23.09s-.14-.05-.18-.16c-.02-.05-.02-.09-.02-.13,0-.13.09-.18.23-.29.5-.32,1.21-.5,2.21-.5,1.78,0,2.7.68,2.84,2.25.31,3.48.67,7.56.88,9.49.11.94.34,1.24.77,1.24h.04c.23-.02.41-.11.59-.2.07-.04.13-.09.16-.09.05,0,.11.04.16.14.02.02.02.04.02.05,0,.11-.13.22-.27.32Z"/>
    </g>
  </g>
</svg>