<?xml version="1.0" encoding="UTF-8"?>
<svg id="Layer_2" data-name="Layer 2" xmlns="http://www.w3.org/2000/svg" xmlns:xlink="http://www.w3.org/1999/xlink" viewBox="0 0 21 21">
  <defs>
    <style>
      .cls-1 {
        fill: none;
        stroke: #f7f2e8;
      }

      .cls-2 {
        fill: url(#radial-gradient);
      }
    </style>
    <radialGradient id="radial-gradient" cx="15.26" cy="3.85" fx="15.26" fy="3.85" r="21.37" gradientUnits="userSpaceOnUse">
      <stop offset="0" stop-color="#8f7546"/>
      <stop offset="1" stop-color="#42341d"/>
    </radialGradient>
  </defs>
  <g id="Layer_1-2" data-name="Layer 1">
    <circle class="cls-2" cx="10.5" cy="10.5" r="10"/>
    <circle class="cls-1" cx="10.5" cy="10.5" r="10"/>
    <path d="M14.88,8.56c-.4,1.84-.54,2.58-.74,3.55-.04.22-.07.4-.07.54,0,.23.09.38.36.38.18,0,.38-.07.54-.16.11-.05.18-.09.25-.09s.13.04.16.13c0,.02.02.05.02.07,0,.07-.07.16-.31.32-.36.25-1.1.54-1.87.54-1.08,0-1.53-.49-1.53-1.21v-.09c-.54.77-1.51,1.22-2.34,1.22-.47,0-.88-.14-1.17-.45-.18.88-.4,2.02-.59,2.97-.05.23-.43.36-1.24.36s-1.03-.16-1.03-.34v-.04c.68-3.24,1.85-8.95,2.38-11.61.04-.2.36-.29,1.15-.29.74,0,1.28.16,1.28.36v.02c-.31,1.42-.97,4.68-1.28,6.14-.02.13-.04.25-.04.38,0,.79.54,1.42,1.1,1.42.85,0,1.58-.58,1.93-1.21.16-.63.45-2.07.65-2.92.32-1.53.58-2.9.77-3.83.04-.23.41-.34,1.24-.34.74,0,1.17.14,1.17.34v.02c-.2.88-.43,2.07-.79,3.82Z"/>
  </g>
</svg>