<?xml version="1.0" encoding="UTF-8"?>
<svg id="Layer_2" data-name="Layer 2" xmlns="http://www.w3.org/2000/svg" xmlns:xlink="http://www.w3.org/1999/xlink" viewBox="0 0 21 21">
  <defs>
    <style>
      .cls-1 {
        fill: none;
        stroke: #f7f2e8;
      }

      .cls-2 {
        fill: url(#radial-gradient);
      }
    </style>
    <radialGradient id="radial-gradient" cx="16.74" cy="4.31" fx="16.74" fy="4.31" r="19.46" gradientUnits="userSpaceOnUse">
      <stop offset="0" stop-color="#e65f2b"/>
      <stop offset="1" stop-color="#7d2d0e"/>
    </radialGradient>
  </defs>
  <g id="Layer_1-2" data-name="Layer 1">
    <circle class="cls-2" cx="10.5" cy="10.5" r="10"/>
    <circle class="cls-1" cx="10.5" cy="10.5" r="10"/>
    <path d="M15.73,11.16c-.47,2.81-2.7,4.68-5.65,4.75l-.54,2.74c-.04.18-.18.22-.38.22h-.16c-.27-.02-.5-.04-.5-.2v-.05l.54-2.68c-2.23-.07-3.83-1.66-3.83-3.91,0-.27.02-.56.07-.85.41-2.59,2.86-4.7,5.6-4.74l.77-4.14c.04-.13.11-.16.34-.16h.18c.34.02.5.05.5.2v.04l-.77,4.07c2.25.09,3.91,1.67,3.91,3.92,0,.25-.04.52-.07.79ZM7.65,11.44c-.05.31-.07.59-.07.86,0,1.42.63,2.49,1.62,2.74l1.49-7.72c-1.46.23-2.65,1.73-3.04,4.12ZM11.73,7.27l-1.5,7.76c1.71-.27,2.77-1.67,3.1-4.14.04-.22.04-.45.04-.67,0-1.46-.61-2.67-1.64-2.95Z"/>
  </g>
</svg>