<?xml version="1.0" encoding="UTF-8"?>
<svg id="Layer_2" data-name="Layer 2" xmlns="http://www.w3.org/2000/svg" xmlns:xlink="http://www.w3.org/1999/xlink" viewBox="0 0 21 21">
  <defs>
    <style>
      .cls-1 {
        fill: none;
        stroke: #f7f2e8;
      }

      .cls-2 {
        fill: url(#radial-gradient);
      }
    </style>
    <radialGradient id="radial-gradient" cx="14.6" cy="3.08" fx="14.6" fy="3.08" r="20.24" gradientUnits="userSpaceOnUse">
      <stop offset="0" stop-color="#d4a373"/>
      <stop offset="1" stop-color="#664625"/>
    </radialGradient>
  </defs>
  <g id="Layer_1-2" data-name="Layer 1">
    <circle class="cls-2" cx="10.5" cy="10.5" r="10"/>
    <circle class="cls-1" cx="10.5" cy="10.5" r="10"/>
    <path d="M15.15,7.37c-.52,2.41-1.5,7.31-1.84,9.04-.04.22-.38.31-1.19.31s-1.3-.18-1.3-.38v-.02c.38-1.71,1.33-6.41,1.89-9.09.04-.2.05-.4.05-.56,0-.77-.4-1.24-1.15-1.24s-1.33.29-1.85.83c-.13.56-.45,2.07-.7,3.22-.32,1.46-.63,3.06-.81,4.02-.05.29-.49.36-1.33.36-.74,0-1.15-.14-1.15-.36v-.02c.18-.79.52-2.32.9-4.07.4-1.87.54-2.57.7-3.4.04-.2.07-.38.07-.5,0-.25-.11-.4-.4-.4-.18,0-.36.07-.52.14-.11.05-.2.09-.25.09-.07,0-.13-.04-.16-.13-.02-.02-.02-.05-.02-.07,0-.07.07-.16.32-.32.32-.2,1.01-.52,1.82-.52.99,0,1.57.45,1.64,1.03.65-.5,1.44-1.03,2.72-1.03,1.48,0,2.65.68,2.65,2.27,0,.25-.04.52-.09.81Z"/>
  </g>
</svg>