<?xml version="1.0" encoding="UTF-8"?>
<svg id="Layer_2" data-name="Layer 2" xmlns="http://www.w3.org/2000/svg" xmlns:xlink="http://www.w3.org/1999/xlink" viewBox="0 0 21 21">
  <defs>
    <style>
      .cls-1 {
        fill: none;
        stroke: #f7f2e8;
      }

      .cls-2 {
        fill: url(#radial-gradient);
      }
    </style>
    <radialGradient id="radial-gradient" cx="14.61" cy="3.08" fx="14.61" fy="3.08" r="19.89" gradientUnits="userSpaceOnUse">
      <stop offset="0" stop-color="#00a896"/>
      <stop offset="1" stop-color="#025e54"/>
    </radialGradient>
  </defs>
  <g id="Layer_1-2" data-name="Layer 1">
    <circle class="cls-2" cx="10.5" cy="10.5" r="10"/>
    <circle class="cls-1" cx="10.5" cy="10.5" r="10"/>
    <path d="M15.46,9.35c-.63,3.38-2.52,4.52-4.75,4.52-.79,0-1.76-.41-2.14-.86-.22.92-.47,2.23-.72,3.4-.04.2-.56.29-1.31.27-.77-.02-1.12-.18-1.12-.36v-.04c.29-1.37,1.08-4.9,1.58-7.22.72-3.38,2.3-4.74,5.11-4.74,1.91,0,3.47,1.3,3.47,3.76,0,.4-.04.81-.13,1.26ZM11.86,5.33c-1.17,0-1.89,1.19-2.39,3.4-.14.67-.52,2.39-.7,3.33.34.59.95.9,1.53.9,1.08,0,2.21-.97,2.77-3.64.13-.59.18-1.12.18-1.57,0-1.62-.67-2.43-1.39-2.43Z"/>
  </g>
</svg>