<?xml version="1.0" encoding="UTF-8"?>
<svg id="Layer_1" data-name="Layer 1" xmlns="http://www.w3.org/2000/svg" viewBox="0 0 21.5 21.5">
  <defs>
    <style>
      .cls-1 {
        fill: #f7f2e8;
      }

      .cls-2 {
        fill: #00a339;
        stroke: #00672e;
        stroke-width: 1.5px;
      }
    </style>
  </defs>
  <circle class="cls-2" cx="10.75" cy="10.75" r="10"/>
  <g id="g6">
    <path id="path2" class="cls-1" d="M13.63,8.73c-.65-.57-1.18-1.14-1.83-1.71l-2.79.32-.09.47s-.53.15-.88.59c-.34.43.27,1.27.97,1.53-.11-.3-.05-.62.14-.83.16-.16.35-.2.43-.22.57-.04,1-.03,1.21.34.29.53.04,1.73-1.08,2.21,1.07.39,2.23.17,3.02-.56.9-.83.9-1.96.9-2.16ZM9.63,8.04l-.34-.27.7-.14-.36.41Z"/>
    <path id="path4" class="cls-1" d="M13.01,17.77c-.42-.42-.39-.91-.38-1.03h0v-4.3c.55-.29,1.02-.7,1.38-1.2l.57.61h-.95l4.14,2.8-1.87-2.27h.85l-2.11-2.44c.09-.34.14-.7.14-1.06,0-.53-.1-1.04-.29-1.51l2.22-2.58h-.85l1.87-2.27-4.14,2.8h.95l-.8.86c-.32-.35-.7-.65-1.12-.87v-.58h0c0-.12-.03-.61.38-1.03.4-.4,1.06-.58,1.7-.47v-.72h-7.89v.72c.65-.11,1.3.07,1.7.47.42.42.39.91.38,1.03h0v.58c-.44.23-.83.54-1.15.91l-.83-.9h.95L3.74,2.54l1.87,2.27h-.84l2.27,2.62c-.18.45-.27.94-.27,1.46,0,.37.05.73.15,1.07l-2.1,2.44h.85l-1.87,2.27,4.13-2.8h-.95l.57-.61c.36.5.83.91,1.38,1.19v4.31h0c0,.12.03.61-.38,1.03-.4.4-1.06.58-1.7.47v.72h7.89v-.72c-.65.11-1.3-.07-1.7-.47h0ZM10.76,12.05c-1.75,0-3.17-1.42-3.17-3.17s1.42-3.17,3.17-3.17,3.17,1.42,3.17,3.17-1.42,3.17-3.17,3.17Z"/>
  </g>
</svg>