<?xml version="1.0" encoding="UTF-8"?>
<svg id="Layer_1" data-name="Layer 1" xmlns="http://www.w3.org/2000/svg" viewBox="0 0 21.5 21.5">
  <defs>
    <style>
      .cls-1 {
        fill: #fff;
      }

      .cls-2 {
        fill: #2563eb;
        stroke: #1e40af;
        stroke-width: 1.5px;
      }
    </style>
  </defs>
  <circle class="cls-2" cx="10.75" cy="10.75" r="10"/>
  <g>
    <ellipse class="cls-1" cx="10.75" cy="8.37" rx="1.92" ry="2.09"/>
    <path class="cls-1" d="M13.04.51h-4.57L3.99,7.95l3.42,13.04h6.67l3.42-13.04L13.04.51ZM15.23,13.83l-.63.48-2.36-3.67c-.32.25-.7.43-1.11.49v9.46h-.77v-9.46c-.41-.07-.79-.24-1.11-.49l-2.35,3.67-.63-.48,2.43-3.79c-.25-.36-.42-.79-.48-1.25h-2.59v-.84h2.59c.17-1.21,1.04-2.16,2.15-2.34v-.54c-.7-.18-1.22-.86-1.22-1.68v-.02h.66v.03c0,.57.43,1.04.96,1.04s.96-.46.96-1.04v-.03h.62v.02c0,.81-.52,1.49-1.22,1.68v.54c1.11.18,1.98,1.13,2.15,2.34h2.6v.83h-2.59c-.07.47-.23.89-.48,1.25l2.43,3.79Z"/>
  </g>
</svg>