<?xml version="1.0" encoding="UTF-8"?>
<svg id="Layer_1" data-name="Layer 1" xmlns="http://www.w3.org/2000/svg" viewBox="0 0 21.5 21.5">
  <defs>
    <style>
      .cls-1 {
        fill: #fff;
      }

      .cls-2 {
        fill: #eb000e;
        stroke: #af0402;
        stroke-width: 1.5px;
      }
    </style>
  </defs>
  <circle class="cls-2" cx="10.75" cy="10.75" r="10"/>
  <path class="cls-1" d="M10.74.75c-.15,0-.23.1-.25.22l-.61,2.06c-1.45.16-2.83.73-3.97,1.65-.63-.34-1.27-.69-1.9-1.03-.12-.06-.22-.06-.32.04s-.07.24-.01.34l1.02,1.87c-.92,1.14-1.49,2.53-1.66,3.98-.69.21-1.39.41-2.08.62-.13.04-.2.11-.2.25,0,.13.12.22.23.25l2.05.61c.16,1.46.73,2.85,1.65,3.99-.35.64-.69,1.28-1.04,1.91-.06.12-.06.22.04.32s.24.07.34.01l1.88-1.02c1.14.92,2.52,1.49,3.98,1.66.21.69.41,1.39.62,2.08.04.13.11.2.25.2.13,0,.22-.12.25-.23l.61-2.05c1.46-.16,2.85-.73,4-1.66l1.89,1.03c.14.07.23.08.34-.02.11-.1.09-.23.02-.33l-1.03-1.9c.92-1.15,1.49-2.53,1.65-3.99l2.06-.61c.15-.05.22-.1.22-.25,0-.15-.1-.23-.22-.25l-2.07-.61c-.16-1.46-.74-2.83-1.65-3.98l1.02-1.88c.07-.14.08-.23-.02-.34-.12-.1-.22-.07-.33-.02l-1.89,1.02c-1.15-.92-2.53-1.49-3.99-1.65l-.61-2.05c-.05-.15-.1-.22-.25-.22h0ZM10.74,1.79v7.76c-.2,0-.4.06-.58.15l-1.24-1.58,1.82-6.34ZM11.79,3.65c1.17.17,2.29.63,3.24,1.34l-2.45,1.33-.79-2.67ZM9.69,3.66l-.79,2.65c-.81-.44-1.62-.88-2.43-1.32.95-.7,2.05-1.16,3.22-1.33h0ZM4.41,4.41l3.9,3.89h0s-1.49.45-1.49.45l-2.41-4.34ZM13.18,8.31h-.02s-.44-1.48-.44-1.48l4.35-2.41-3.89,3.89ZM16.51,6.46c.71.95,1.17,2.06,1.34,3.23l-2.66-.79,1.32-2.44ZM5,6.47l1.32,2.44-2.66.79c.17-1.17.63-2.28,1.34-3.23h0ZM13.34,8.91l6.36,1.83h-7.76c0-.2-.06-.4-.16-.58l1.56-1.25ZM9.55,10.74h0c0,.21.05.41.15.58l-1.57,1.24-1.56-.45-4.78-1.37h7.77ZM17.85,11.78c-.17,1.17-.63,2.29-1.34,3.24l-1.33-2.45,2.67-.79ZM3.65,11.79l2.66.79c-.44.82-.89,1.63-1.33,2.45-.71-.95-1.16-2.06-1.33-3.24h0ZM11.33,11.8l1.24,1.55-.45,1.57-1.37,4.79v-7.77c.21,0,.42-.05.58-.15h0ZM14.68,12.72l2.41,4.36-3.91-3.91,1.5-.44ZM8.31,13.18l.44,1.5-4.35,2.41,3.91-3.91ZM12.58,15.17l2.46,1.33c-.95.71-2.07,1.17-3.25,1.34l.79-2.67ZM8.9,15.18c.26.89.53,1.77.79,2.66-1.17-.17-2.28-.63-3.22-1.34l2.43-1.32Z"/>
</svg>