<?xml version="1.0" encoding="UTF-8"?>
<svg id="Layer_1" data-name="Layer 1" xmlns="http://www.w3.org/2000/svg" viewBox="0 0 21.5 21.5">
  <defs>
    <style>
      .cls-1 {
        fill: #fff;
      }

      .cls-2 {
        fill: #eb000e;
        stroke: #af0402;
        stroke-width: 1.5px;
      }
    </style>
  </defs>
  <circle class="cls-2" cx="10.75" cy="10.75" r="10"/>
  <g id="g34">
    <circle id="circle2" class="cls-1" cx="4.19" cy="17.78" r=".69"/>
    <path id="path4" class="cls-1" d="M6.07,15.74c-.12.03-.84.72-.84.72-.05.01-.26.07-.44-.05-.33-.23-.67-.1-.74-.09-.55.07-.81,1.21-.81,1.21.53-.53.93-.82,1.45-.4.54.37.14,1.23.14,1.23.1.03.27-.14.35-.32.14-.29.02-.68.02-.74.32-.44,1.07-1,1.21-1.28,0,0-.11-.33-.35-.28Z"/>
    <path id="path6" class="cls-1" d="M8.09,13.7c-1.78-.38-1.56-1.96-.7-2.42.4-.32,11.57-6.96,10.83-8.25.07.04-7.9,5.75-8.08,5.71-.19.11-.11-.44-.11-.44-2.05,1.59-3.87,3.1-4.64,3.66-.76.55-.14,1.72.32,1.72s.81-.2,1.28.25c.37.35-1.19,1.51-1.19,1.51.51.11.81.4.81.93,0,0,2.23-2.51,1.49-2.66Z"/>
    <path id="path8" class="cls-1" d="M7.53,15.47c.31.13,1.16.12,1.16.12l-.72-.79s-.65.58-.44.67Z"/>
    <path id="path10" class="cls-1" d="M7.98,14.67s.25.42.4.42.51.04.91-.09c0-.05-1.02-.75-1.02-.75l-.3.42Z"/>
    <path id="path12" class="cls-1" d="M10.31,14.28c-.26-.04-2.44-.95-2.16-.67.14.14.25.28.16.47-.05.12.44.42.91.56.47.14,1.31-.34,1.09-.37Z"/>
    <path id="path14" class="cls-1" d="M10.84,13.39c-.19-.05-3.64-.82-3.73-.61-.23.33.77.8.86.77.18-.23,1.56.42,1.89.28.17-.07,1.21-.38.98-.44Z"/>
    <path id="path16" class="cls-1" d="M11.57,11.92c-1.65.49-4.36-.53-4.57.04-.12.26,0,.58,0,.58,0,0,2.79.51,3.59.4.54-.07.91-.72.98-1.02Z"/>
    <path id="path18" class="cls-1" d="M7.89,11.11c-.52.3-.53.46-.53.46,0,0,2.59.61,3.94.07.25-.29.51-1.3.51-1.3,0,0-3.26.74-3.93.77Z"/>
    <path id="path20" class="cls-1" d="M11.73,8.66c-.74.33-1.17.84-2.79,1.72-.4.27-.53.36-.51.44.08.31,2.44-.33,3.07-.61.37-.32.23-1.54.23-1.54Z"/>
    <path id="path22" class="cls-1" d="M9.37,14.77s.09.18.05.28c-.06.13-.34.06-.37.12-.07.14,1.12.74,2.05.84.28,0,.89-.07.89-.07,0,0-.98-.65-2.03-1.24-.26.11-.6.07-.6.07Z"/>
    <path id="path24" class="cls-1" d="M10.64,13.74c.05.05-.63.19-.63.19,0,0,.68.26.68.37s-.51.3-.51.3c0,0,1.14.77,2.02.77s1.86-1.12,1.86-1.12c-.67.16-3.47-.56-3.42-.51Z"/>
    <path id="path26" class="cls-1" d="M11.25,12.81c.05-.07-.64.39-.64.39,0,0,.62.05.64.16.03.11-.39.21-.39.21,0,0,1.6.66,2.56.38.97-.27,1.66-1.47,1.66-1.47-.69.37-3.89.4-3.84.33Z"/>
    <path id="path28" class="cls-1" d="M11.7,11.21l-.33.52s.4.03.45.13-.37.61-.37.61c-.11.21,3.4-.12,3.4-.12.83-.56,1.91-2.26,1.91-2.26-.59.51-5.03,1.46-5.06,1.12Z"/>
    <path id="path30" class="cls-1" d="M17.46,7.43c-.7.79-5.23,2.27-5.63,2.56-.03.02-.16.12-.14.19.02.07.13.06.19.12.16.15-.17.55-.11.74,0,0,2.51-.19,4.54-1,.77-.76,1.42-2.51,1.14-2.61Z"/>
    <path id="path32" class="cls-1" d="M11.89,9.67c.65.18,4.87-1.84,5.29-2.16s.98-3.59.98-3.59c0,0-5.05,4.22-6.27,4.66,0,0,.16.74,0,1.09Z"/>
  </g>
</svg>