<?xml version="1.0" encoding="UTF-8"?>
<svg id="Layer_1" data-name="Layer 1" xmlns="http://www.w3.org/2000/svg" viewBox="0 0 21.5 21.5">
  <defs>
    <style>
      .cls-1 {
        fill: #f7f2e8;
      }

      .cls-2 {
        fill: #2563eb;
        stroke: #1e40af;
        stroke-width: 1.5px;
      }
    </style>
  </defs>
  <circle class="cls-2" cx="10.75" cy="10.75" r="10"/>
  <g>
    <path id="path922" class="cls-1" d="M9.69,1.47v1.36c-.68.1-1.35.28-1.98.55l-.69-1.19-1.83,1.06.69,1.2c-.54.42-1.03.91-1.45,1.45l-1.2-.69-1.06,1.83,1.2.69c-.26.63-.44,1.3-.54,1.98h-1.38v2.11h1.39c.09.68.27,1.34.54,1.97l-1.21.7,1.06,1.83,1.21-.7c.42.54.91,1.03,1.45,1.44l-.7,1.21,1.83,1.06.69-1.2c.63.27,1.3.45,1.98.55v1.37h2.11v-1.37c.68-.09,1.35-.27,1.99-.54l.68,1.19,1.83-1.06-.68-1.18c.55-.42,1.04-.91,1.46-1.45l1.17.68,1.06-1.83-1.17-.68c.27-.64.45-1.31.55-2h1.34v-2.11h-1.34v-.06c-.1-.67-.28-1.32-.54-1.94l1.17-.68-1.06-1.83-1.17.68c-.42-.54-.92-1.03-1.47-1.45l.68-1.18-1.83-1.06-.68,1.19c-.64-.26-1.3-.44-1.99-.54v-1.37h-2.11ZM11.3,4.72s.06,0,.09,0c.31,0,.63.03.94.06.3.03.6.07.89.13.22.05.45.1.66.19.06.02.12.06.18.09.1.08.2.17.28.26.13.15.24.31.34.48.09.16.22.5.22.51.97.92,1.6,2.14,1.79,3.47l.06.83c0,2.1-1.11,4.05-2.92,5.12,0,0-.01.07-.02.1-.01.1-.03.19-.04.29-.01.1-.02.31-.02.31,0,0-.03.06-.05.09-.07.13-.14.25-.23.37-.09.13-.19.24-.29.36-.09.1-.18.2-.28.29-.06.06-.19.17-.19.17h-3.93s-.07-.06-.11-.1c-.09-.08-.18-.17-.26-.26-.1-.11-.2-.23-.3-.35-.07-.09-.13-.18-.19-.27-.06-.1-.18-.32-.18-.32,0,0,0-.07,0-.1-.01-.12-.02-.23-.03-.35-.01-.09-.04-.26-.04-.28-1.65-1-2.71-2.74-2.85-4.67-.12-1.74.53-3.44,1.77-4.66h0s.1-.3.17-.44c.07-.14.15-.29.24-.42.12-.16.25-.32.41-.43.09-.06.19-.1.29-.14.26-.09.53-.15.8-.2.22-.04.45-.08.68-.1.25-.03.49-.04.74-.05.27,0,.82,0,.82,0,0,0,.33-.01.56-.01h0Z"/>
    <path id="path2" class="cls-1" d="M15.99,9.99h-.39v-.34c.02-.44-.54-.69-.54-.69,0,0,.18-1.48-.22-2.56-.18-.5-.44-.86-.71-1.11s-.84-.33-1.4-.42c-.75-.11-1.42-.13-1.97-.1-.55-.03-1.22-.02-1.97.1-.56.09-1.16.22-1.4.42-.25.2-.53.61-.71,1.11-.4,1.08-.22,2.56-.22,2.56,0,0-.57.25-.54.69v.34h-.39v1.33h.42l-.02.98c.4,1.44.93,2.53,1.65,3.1,0,0,.17.05.25,1.16.34.71,1.01,1.25,1.01,1.25h3.89s.66-.54,1.01-1.25c.07-1.11.25-1.16.25-1.16.72-.57,1.25-1.66,1.65-3.1l-.02-.98h.42v-1.33ZM11.55,5.16c.42.08.83.15,1.25.23.05.03.13.09.2.2.11.19.06.38.05.42.08-.07.21-.17.39-.25.29-.11.54-.09.66-.07.17.2.33.44.47.71.37.59.15,2.83.05,3.32-.34.16-.67.33-1.01.49-.07-.12-.16-.29-.22-.49-.06-.19-.09-.36-.1-.49-.13.41-.14.47-.17.54-.06.14-.17.35-.37.57h-1.28c-.06-.46-.11-.96-.14-1.49h.27c.02.13.06.23.12.34.52-.1.95-.32,1.3-.64h.03s0-.01-.01-.02c0,0,0,0,.01-.01h-.03c-.35-.32-.78-.53-1.3-.64-.06.11-.1.22-.12.34h-.29c0-.1,0-.2,0-.31,0-1,.06-1.91.16-2.7,0-.04.05-.08.09-.07h0ZM6.94,6.4c.26-.58.59-.85,1.13-.64.18.07.31.17.39.25-.01-.04-.06-.23.05-.42.06-.11.15-.17.2-.2.42-.08.83-.15,1.25-.23.04,0,.09.02.09.07.1.79.17,1.7.16,2.7,0,.1,0,.21,0,.31h-.29c-.02-.13-.06-.23-.12-.34-.52.1-.95.32-1.3.64h-.03s0,.01.01.02c0,0,0,0-.01.01h.03c.35.32.78.53,1.3.64.06-.11.1-.22.12-.34h.27c-.03.53-.08,1.03-.14,1.49h-1.28c-.2-.22-.31-.42-.37-.57-.03-.07-.05-.13-.17-.54-.01.14-.04.3-.1.49-.06.2-.15.37-.22.49-.34-.16-.67-.33-1.01-.49-.1-.49-.32-2.73.05-3.32h0ZM10.11,17.18h-.89l-.69-.86s-.07-.66-.25-.93c-.17-.27-1.55-1.6-1.8-2.12-.27-.71-.27-1.57-.27-1.57l1.62.44c.17.25.27.66.42,1.11.14-.31.27-.63.49-.93,0,0,1.08,0,1.35.25,0,0,0,0,0,.01,0,1.54,0,3.13,0,4.55v.07h0ZM10.75,11.69s-.07,0-.1,0c-1.63,0-2.94-.34-3.81-.64,0-.19-.07-.38-.07-.57.95.26,2.32.51,3.86.52.04,0,.08,0,.12,0,.04,0,.08,0,.12,0,1.55,0,2.91-.26,3.86-.52,0,.19-.07.38-.07.57-.87.29-2.19.63-3.81.64-.03,0-.07,0-.1,0ZM15.01,13.26c-.25.52-1.62,1.84-1.8,2.12-.17.27-.25.93-.25.93l-.69.86h-.89v-4.62c.27-.25,1.35-.25,1.35-.25.22.3.36.63.49.93.15-.45.24-.86.42-1.11l1.62-.44s0,.86-.27,1.57h0Z"/>
  </g>
</svg>