<?xml version="1.0" encoding="UTF-8"?>
<svg id="Layer_1" data-name="Layer 1" xmlns="http://www.w3.org/2000/svg" viewBox="0 0 21.5 21.5">
  <defs>
    <style>
      .cls-1 {
        fill: #f7f2e8;
      }

      .cls-2 {
        fill: #00a339;
        stroke: #00672e;
        stroke-width: 1.5px;
      }
    </style>
  </defs>
  <circle class="cls-2" cx="10.75" cy="10.75" r="10"/>
  <path class="cls-1" d="M17.04,10.82c-.24-1.42-1.11-2.06-2.27-2.13-.71-.04-1.64.24-2.33.85.31-.79.95-2.77.34-5.16-.47-1.84-1.46-3.05-2-3.63h0c-.54.58-1.53,1.79-2,3.63-.64,2.49.09,4.54.38,5.26-.7-.67-1.69-.98-2.43-.94-1.17.07-2.04.71-2.27,2.13-.18,3.23,3.83,3.09,3.82,1.84-2.06-.16-.13-1.75.44-.26.1.33.11.97.11,1.1l-.03.17h-1.56v1.3h2.45s-.02.06-.03.1c-.32,1.12-2.1.74-2.1.74.12,1.6,1.39,1.88,2.1,1.7.03,0,.05-.02.08-.04l.02.09c.06.5.17,1.1.4,1.77.18.55.4,1.01.61,1.39v.03c.22-.38.43-.85.62-1.39.23-.67.34-1.28.4-1.77l.02-.06c.81.16,1.89-.21,2.01-1.72,0,0-1.78.38-2.1-.74-.01-.04-.02-.07-.03-.1h2.66v-1.3h-1.66v-.15s0,0,0,0c0,0,0-.75.11-1.12.57-1.49,2.5.1.44.26-.02,1.25,4,1.4,3.82-1.84Z"/>
</svg>