<?xml version="1.0" encoding="UTF-8"?>
<svg id="Layer_1" data-name="Layer 1" xmlns="http://www.w3.org/2000/svg" viewBox="0 0 21.5 21.5">
  <defs>
    <style>
      .cls-1 {
        fill: #f7f2e8;
      }

      .cls-2 {
        fill: #00a339;
        stroke: #00672e;
        stroke-width: 1.5px;
      }
    </style>
  </defs>
  <circle class="cls-2" cx="10.75" cy="10.75" r="10"/>
  <g id="g84">
    <path id="path2" class="cls-1" d="M3.32,8.61c1.15.17,1.97.09,2.91-.03.75-.09,1.61-.11,1.78.2.11.19.22.27.2.51-.02.2.02.28-.04.42-.05.12-.06.03-.1.16-.04.15-.05.19.09.45.17.31.45.66.6.79.03.03.08,0,.07-.05-.1-.29-.36-1.08-.19-1.79.09-.39.45-.43.51-.91.06-.47-1.33-.49-1.59-.49s-1.72.21-2.95.24-1.92-.07-3.8-.49c-.28-.06.23.69.6.76.46.08,1.13.1,1.89.22h0Z"/>
    <path id="path4" class="cls-1" d="M5.84,9.33c.24-.04.47-.08.72-.12.4-.08.79-.16,1.16-.25.02,0,.04-.03.04-.06-.01-.04-.03-.08-.07-.12-.09-.1-.24-.15-.4-.11-.23.02-.47.05-.71.07-.55.04-1.07.06-1.56.05.01.08.05.21.14.32.24.29.65.24.68.23Z"/>
    <path id="path6" class="cls-1" d="M5.97,10.07c.24-.07.49-.14.74-.22.47-.15.92-.31,1.33-.48,0-.02.04-.1,0-.19-.03-.08-.09-.12-.1-.13-.32.09-.67.17-1.06.24-.52.1-1.06.15-1.5.17-.02.06.02.17.06.29.07.19.28.31.51.31h0Z"/>
    <path id="path8" class="cls-1" d="M6.38,10.66c.14-.03.22-.05.38-.1.49-.16.82-.4,1.1-.6.02-.06.09-.16.06-.27,0-.03-.01-.05-.02-.07-.39.17-.82.34-1.29.49-.24.07-.47.14-.69.19,0,.02-.01.16.08.27.11.13.36.1.38.1h0Z"/>
    <path id="path10" class="cls-1" d="M6.55,11.32c.08.04.21.01.25,0,.13-.07.23-.13.37-.21.32-.2.61-.4.85-.6,0-.02.03-.1-.01-.19-.04-.08-.11-.12-.13-.12-.23.14-.5.29-.8.43-.26.12-.56.2-.79.27,0,.18.12.36.25.43h0Z"/>
    <path id="path12" class="cls-1" d="M7.17,11.91c.1.02.19,0,.25,0,.18-.15.37-.32.57-.54.14-.15.22-.3.33-.44,0-.04,0-.18-.12-.26-.03-.02-.06-.03-.09-.04-.14.15-.32.3-.52.46-.27.2-.53.36-.75.47-.03.02-.04.06-.02.09.05.08.17.22.36.27h0Z"/>
    <path id="path14" class="cls-1" d="M7.57,12.08c.06.03.16.06.22.08.09.02.19.05.21.04.05-.03.11-.16.16-.2.29-.24.41-.51.49-.73-.01-.03-.04-.06-.07-.1-.06-.07-.14-.09-.17-.1-.13.22-.27.38-.49.62-.08.09-.26.23-.37.33-.02.02-.02.06,0,.07h0Z"/>
    <path id="path16" class="cls-1" d="M8.42,12.4c.1,0,.17-.06.19-.07.02-.13.05-.31.14-.49.04-.1.09-.18.14-.25,0,0,0-.07-.04-.12-.02-.02-.05-.03-.07-.03-.04.07-.07.16-.11.23-.14.21-.31.4-.45.58.04.08.12.14.21.15Z"/>
    <path id="path18" class="cls-1" d="M2.21,9.3c.72-.02,1.04-.07,1.92-.21.15-.02.39-.03.67-.04.03,0,.05-.03.05-.06,0-.03-.01-.07-.05-.1-.05-.06-.12-.06-.13-.06-.99-.08-1.98-.16-2.96-.24-.09,0-.26.01-.44.12-.05.03-.09.06-.12.1-.02.02-.02.05,0,.07.04.06.09.14.16.21.11.11.22.19.31.23.13,0,.34.01.6,0Z"/>
    <path id="path20" class="cls-1" d="M4.28,9.56c.27-.09.53-.17.79-.27,0-.01,0-.04-.02-.07-.03-.05-.08-.06-.09-.06-.8.16-1.69.27-2.66.27-.18,0-.36,0-.54,0-.04.02-.17.11-.18.23-.02.17.17.39.49.43.69-.11,1.43-.29,2.21-.53h0Z"/>
    <path id="path22" class="cls-1" d="M5.23,9.79s.07-.08.06-.18c0-.03,0-.05-.02-.07-.02-.04-.06-.06-.1-.04-.45.14-.72.27-1.33.41-.59.14-1.14.25-1.63.32-.02.01-.26.13-.24.32.02.2.32.43.65.38.71-.3,1.43-.61,2.15-.93.15-.06.3-.13.46-.2h0Z"/>
    <path id="path24" class="cls-1" d="M5.29,10.4c.08-.05.15-.1.2-.14.05-.04.07-.11.03-.16-.02-.02-.04-.05-.06-.07-.04-.04-.09-.07-.13-.09-.04-.02-.08-.01-.11.01-.22.16-.42.21-.56.28-.56.28-.87.31-1.53.65-.17.09-.31.16-.4.22-.03.02-.05.05-.06.08-.01.07,0,.11.01.12.05.12.24.19.44.14,0,0,.01,0,.02,0,.52-.19.76-.34,1.03-.46.29-.13.71-.33,1.11-.59h0Z"/>
    <path id="path26" class="cls-1" d="M5.56,11.04c.14-.06.32-.13.36-.27.02-.09,0-.22-.09-.31-.04-.04-.09-.06-.11-.08-.05.02-.14.06-.24.11-.61.29-.84.48-1.36.73-.12.06-.31.15-.55.25-.05.05-.12.13-.17.23-.07.13-.1.25-.11.33.05.03.13.07.23.09.15.03.28.01.35,0,.56-.33.56-.34.56-.34.99-.59.77-.58,1.13-.74Z"/>
    <path id="path28" class="cls-1" d="M5.77,11.8c.19-.17.35-.28.47-.37.02-.02.04-.05.02-.07-.02-.06-.02-.14-.06-.21-.04-.06-.07-.12-.11-.16-.02-.03-.06-.03-.09-.01-.07.06-.17.14-.29.23-.49.36-.75.47-1.2.79-.13.09-.32.23-.54.41-.02.02-.03.06-.01.09.04.07.12.15.24.22.19.1.37.07.44.06.42-.07.57-.46,1.13-.96h0Z"/>
    <path id="path30" class="cls-1" d="M6.63,11.73c.02-.06,0-.12-.04-.17-.06-.06-.14-.05-.15-.05-.07.07-.18.19-.32.32-.32.29-.5.37-.8.62-.11.09-.28.21-.46.41-.03.03-.03.08,0,.11.04.04.1.09.17.12.12.05.24.04.28.03.14-.1.3-.21.45-.34.41-.36.69-.74.88-1.05h0Z"/>
    <path id="path32" class="cls-1" d="M6.96,12.35c.05-.06.1-.12.14-.17.02-.02.01-.05-.01-.07-.03-.02-.07-.03-.11-.05-.09-.03-.17-.04-.23-.04-.22.17-.45.36-.69.59-.14.14-.27.27-.39.41.04.05.13.15.27.2.11.04.21.04.27.04.13-.09.23-.19.28-.25.2-.21.13-.24.46-.67Z"/>
    <path id="path34" class="cls-1" d="M7.56,12.28c-.11-.06-.21-.05-.25-.05-.12.16-.25.33-.37.51-.17.26-.32.5-.45.74.05.02.12.04.19.04.16.02.29-.02.36-.04.05-.07.1-.14.16-.22.21-.31.36-.61.48-.89-.02-.03-.06-.06-.12-.1Z"/>
    <path id="path36" class="cls-1" d="M7.76,13.7c.07-.11.14-.17.21-.3.14-.24.25-.48.35-.7.01-.02,0-.05-.01-.07-.04-.04-.09-.09-.17-.14-.07-.04-.13-.05-.18-.06-.03,0-.07.01-.08.05-.05.14-.11.26-.15.34-.15.3-.27.42-.41.74-.03.07-.05.13-.07.18-.01.04,0,.07.04.09h0c.17.07.35-.04.44-.08.01,0,.02-.01.03-.02h0Z"/>
    <path id="path38" class="cls-1" d="M8.62,12.65s-.08.1-.13.17c-.07.1-.27.4-.52,1.06-.06.16-.17.4-.24.64-.01.05.03.09.07.08.05-.01.11-.01.15-.05.8-.74.95-1.31.97-1.48,0-.05-.02-.17-.11-.28-.07-.09-.16-.13-.2-.15h0Z"/>
    <path id="path40" class="cls-1" d="M20.67,7.76c-1.88.42-2.57.51-3.8.49s-2.69-.24-2.95-.24-1.65.02-1.59.49c.06.48.42.52.51.91.17.71-.09,1.5-.19,1.79-.01.04.04.07.07.05.15-.14.44-.48.6-.79.14-.26.1-.3.09-.45-.01-.15-.06-.1-.1-.16-.09-.13-.01-.22-.04-.42-.02-.24.09-.32.2-.51.17-.31,1.04-.29,1.78-.2.94.12,1.76.2,2.91.03.76-.11,1.43-.14,1.89-.21.37-.06.89-.82.6-.76h0Z"/>
    <path id="path42" class="cls-1" d="M14.94,9.33c.25.05.49.09.72.12.03,0,.44.06.68-.23.1-.12.13-.25.14-.32-.49,0-1.01-.01-1.56-.05-.24-.02-.48-.04-.71-.07-.15-.03-.31,0-.4.11-.04.04-.06.09-.07.12,0,.02,0,.05.04.06.37.09.75.18,1.16.26Z"/>
    <path id="path44" class="cls-1" d="M13.44,9.3c-.03.09,0,.17,0,.19.42.16.86.33,1.33.48.25.08.5.15.74.22.24,0,.44-.13.51-.31.05-.12.08-.23.06-.29-.44-.02-.98-.08-1.5-.17-.38-.07-.73-.15-1.06-.24-.02.01-.07.05-.1.13h0Z"/>
    <path id="path46" class="cls-1" d="M15.5,10.68c.1-.11.09-.25.08-.27-.22-.06-.46-.12-.69-.19-.47-.15-.9-.31-1.29-.49,0,.02-.02.05-.02.07-.02.12.04.21.06.27.28.21.62.44,1.1.6.16.05.24.07.38.1.02,0,.26.03.38-.1h0Z"/>
    <path id="path48" class="cls-1" d="M13.62,10.31s-.09.04-.13.12c-.04.09-.02.18-.01.19.25.2.53.41.85.6.14.09.24.14.37.21.05,0,.17.03.25,0,.14-.07.26-.25.25-.43-.23-.07-.52-.15-.79-.27-.3-.14-.57-.29-.8-.43h0Z"/>
    <path id="path50" class="cls-1" d="M13.3,10.78c-.12.08-.11.22-.12.26.11.14.19.29.33.44.2.22.39.39.57.54.06.01.15.03.25,0,.19-.04.31-.18.36-.27.02-.03,0-.07-.02-.09-.23-.11-.49-.27-.75-.47-.2-.16-.38-.31-.52-.46-.02.01-.06.02-.09.04h0Z"/>
    <path id="path52" class="cls-1" d="M12.91,11.29s-.06.07-.07.1c.08.22.2.49.49.73.05.04.11.17.16.2.02.01.12-.02.21-.04.07-.01.16-.05.22-.08.03-.01.03-.05.01-.07-.11-.09-.29-.23-.37-.33-.21-.24-.35-.4-.49-.62-.04,0-.11.04-.17.1Z"/>
    <path id="path54" class="cls-1" d="M12.72,11.57s-.04,0-.07.03c-.05.04-.04.11-.04.12.05.07.1.15.14.25.09.19.12.36.14.49.01.01.08.08.19.07.09,0,.17-.06.21-.15-.14-.19-.31-.37-.45-.58-.05-.07-.07-.16-.11-.23Z"/>
    <path id="path56" class="cls-1" d="M20.22,8.82c-.17-.11-.35-.12-.44-.12-.99.08-1.98.16-2.96.24-.01,0-.08,0-.13.06-.03.03-.04.07-.05.1,0,.03.02.06.05.06.29.01.52.02.67.04.89.15,1.2.19,1.92.21.26,0,.47,0,.6,0,.08-.04.2-.11.31-.23.07-.07.12-.15.16-.21.01-.02.01-.05,0-.07-.03-.03-.07-.06-.12-.09h0Z"/>
    <path id="path58" class="cls-1" d="M19.74,9.55c-.17,0-.35,0-.54,0-.97,0-1.86-.12-2.66-.27-.01,0-.06.01-.09.06-.02.03-.02.06-.02.07.25.09.51.18.79.27.78.24,1.52.41,2.21.53.32-.04.51-.26.49-.43-.01-.13-.14-.21-.18-.24Z"/>
    <path id="path60" class="cls-1" d="M19.28,10.34c-.49-.07-1.04-.18-1.63-.32-.61-.15-.88-.28-1.33-.41-.04-.01-.08,0-.1.04,0,.02-.01.04-.02.07,0,.1.05.17.06.18.15.07.31.14.46.2.72.32,1.44.63,2.15.93.33.05.63-.18.65-.38.02-.2-.22-.31-.24-.32h0Z"/>
    <path id="path62" class="cls-1" d="M18.77,11.23c-.1-.06-.24-.14-.4-.22-.66-.34-.97-.37-1.53-.65-.14-.07-.34-.12-.56-.28-.03-.02-.08-.03-.11-.01s-.08.04-.13.09c-.02.02-.05.05-.06.07-.04.05-.02.12.03.16.06.04.12.09.2.14.4.25.82.46,1.11.58.27.12.5.27,1.03.46,0,0,.01,0,.02,0,.21.05.39-.02.44-.14,0-.02.02-.06.01-.12,0-.03-.03-.06-.06-.08h0Z"/>
    <path id="path64" class="cls-1" d="M17.95,11.59c-.24-.1-.43-.18-.55-.25-.52-.26-.76-.45-1.36-.73-.1-.05-.19-.09-.24-.11-.03.01-.07.04-.11.08-.09.09-.11.22-.09.31.04.15.22.21.36.27.36.16.14.15,1.13.74,0,0,0,0,.56.34.07.02.2.04.35,0,.1-.02.18-.06.23-.09-.01-.08-.04-.2-.11-.33-.05-.11-.12-.18-.17-.24h0Z"/>
    <path id="path66" class="cls-1" d="M16.99,12.1c-.45-.32-.72-.43-1.2-.79-.12-.09-.22-.17-.29-.23-.03-.02-.07-.02-.09.01-.04.05-.07.1-.11.16-.04.07-.04.15-.06.21-.01.03,0,.06.02.07.13.09.28.2.47.37.56.51.71.89,1.13.96.07.01.26.04.44-.06.12-.06.19-.15.24-.22.02-.03.01-.06-.01-.09-.21-.18-.4-.32-.53-.41h0Z"/>
    <path id="path68" class="cls-1" d="M16.19,12.58c-.3-.25-.49-.34-.8-.62-.15-.13-.26-.25-.32-.32,0,0-.09-.01-.15.05-.04.04-.06.11-.04.17.19.31.47.69.88,1.05.15.14.31.25.45.34.04,0,.15.02.28-.03.07-.03.13-.08.17-.12.03-.03.03-.08,0-.11-.18-.19-.35-.31-.46-.4h0Z"/>
    <path id="path70" class="cls-1" d="M15.43,12.74c-.24-.23-.47-.42-.69-.59-.06,0-.14,0-.23.04-.04.01-.08.03-.11.05-.02.01-.03.05-.01.07.04.04.09.11.14.17.33.42.27.45.46.67.06.06.15.16.28.25.06,0,.16,0,.27-.04.15-.06.24-.15.27-.2-.12-.14-.25-.27-.39-.41h0Z"/>
    <path id="path72" class="cls-1" d="M14.19,12.35s-.15,0-.25.05c-.06.03-.09.07-.12.1.12.28.27.58.48.89.05.08.1.15.16.22.08.03.21.06.36.04.08,0,.14-.02.19-.04-.13-.24-.28-.48-.45-.74-.12-.18-.25-.35-.37-.51Z"/>
    <path id="path74" class="cls-1" d="M14.17,13.66c-.14-.32-.26-.44-.41-.74-.04-.08-.09-.19-.15-.34-.01-.03-.05-.05-.08-.05-.05.01-.11.03-.18.06-.08.04-.13.1-.17.14-.02.02-.02.05-.01.07.1.22.21.46.35.7.07.12.14.19.21.3,0,.01.02.02.03.02.09.04.27.16.44.08h0s.05-.05.04-.09c-.01-.05-.04-.11-.06-.18h0Z"/>
    <path id="path76" class="cls-1" d="M13.52,14c-.25-.66-.45-.96-.52-1.06-.05-.07-.1-.13-.13-.17-.04.02-.13.06-.2.15-.09.11-.11.24-.11.28.03.17.17.75.97,1.48.04.03.1.03.15.05.05.01.09-.03.07-.08-.07-.24-.18-.49-.24-.64h0Z"/>
    <path id="path78" class="cls-1" d="M9.41,7.01s.02.06.06.06l.55.06.04.34c0,.06.03.16.07.26.03.07.11.22.11.22v.19c.16-.04.3-.05.41-.06,0,0,.04,0,.1,0h0c.06,0,.1,0,.1,0,.1,0,.24.02.4.05v-.18s.08-.15.11-.22c.04-.1.07-.19.07-.26l.04-.34.55-.06s.06-.03.06-.06v-.22s-.02-.04-.04-.04c-.3,0-.64-.04-.95-.05-.1-.22-.1-.7-.09-.5-.02-.6,0-.92.07-1.41h.12s.05-.02.05-.04v-.48s-.02-.04-.04-.05c-.05,0-.1,0-.16-.01,0-.02-.02-.13-.11-.21-.06-.05-.13-.06-.17-.07h0s-.11,0-.18.06c-.1.08-.11.19-.11.21-.05,0-.1,0-.16.01-.02,0-.04.02-.04.05v.48s.02.05.05.05h.12c.07.49.09.81.07,1.41,0-.2,0,.29-.09.5-.31.01-.65.04-.95.05-.02,0-.04.02-.04.04v.22h0Z"/>
    <path id="path80" class="cls-1" d="M11.27,14.09h-1.07v1.6c-.01.25.08.85.2,1.25.1.36.21.43.33.61v.03s0-.01.01-.01c0,0,0,0,0,.01v-.02c.12-.19.23-.25.33-.61.11-.41.21-1,.2-1.25v-1.61Z"/>
    <path id="path82" class="cls-1" d="M12.46,11.54c-.11-.14.44-1.18.15-2.1-.34-1.08-1.33-1.25-1.77-1.27,0,0-.04,0-.1,0h0c-.06,0-.1,0-.1,0-.43.02-1.43.19-1.77,1.27-.29.92.26,1.96.15,2.1-.44.56.16,1.45.24,1.53.15.13.62-.14.55,0-.06.11-.11.9-.11.9h.15l.07-.28h.12s.02.28.02.28h.26l.02-.27h.09s.01.27.01.27h.21v-.29h.18v.29h.22v-.28s.1.01.1.01l.02.27h.25l.02-.28h.12s.07.28.07.28h.15s-.05-.8-.11-.9c-.07-.14.4.13.55,0,.08-.07.69-.96.24-1.53ZM10.46,12.12c-.06.07-.14.16-.25.22-.27.17-.54.14-.65.13,0,0-.01,0-.02,0-.24-.16-.33-.42-.26-.58.01-.02.05-.11.17-.16,0,0,.01,0,.02,0,.15.01.34.05.55.12.17.06.31.13.43.19.03.02.04.06.02.09ZM11.03,13.09s-.02.02-.03.01c-.02-.04-.06-.08-.11-.11-.05-.04-.1-.07-.14-.08-.04.01-.09.04-.14.08-.05.04-.08.08-.11.11-.01.01-.03,0-.03-.01,0-.14,0-.41.19-.62.02-.03.06-.05.09-.07.04.02.07.05.09.07.19.2.19.48.19.62h0ZM11.94,12.46s-.01,0-.02,0c-.11.02-.38.04-.65-.13-.11-.07-.2-.15-.25-.22-.02-.03-.01-.07.01-.09.12-.07.26-.14.43-.19.21-.07.4-.1.55-.12,0,0,.01,0,.02,0,.12.05.16.13.17.16.07.16-.02.42-.26.58h0Z"/>
  </g>
</svg>