<?xml version="1.0" encoding="UTF-8"?>
<svg id="Layer_1" data-name="Layer 1" xmlns="http://www.w3.org/2000/svg" viewBox="0 0 21.5 21.5">
  <defs>
    <style>
      .cls-1 {
        fill: #eb000e;
        stroke: #af0402;
        stroke-width: 1.5px;
      }

      .cls-2 {
        fill: #f7f2e8;
      }
    </style>
  </defs>
  <circle class="cls-1" cx="10.75" cy="10.75" r="10"/>
  <path id="path2" class="cls-2" d="M18.41,11.71c.54-.23,1.6-.74,1.6-.74l-1.58-.59c-.04-.58-.14-1.15-.3-1.69.4-.41,1.22-1.35,1.22-1.35l-1.72.09c-.25-.49-.54-.95-.88-1.38.2-.47.66-1.79.66-1.79l-1.65.76c-.41-.35-.85-.66-1.32-.92.01-.54-.03-1.86-.03-1.86l-1.26,1.3c-.55-.18-1.12-.31-1.71-.37-.21-.51-.78-1.68-.78-1.68l-.62,1.67c-.59.05-1.17.16-1.72.34-.43-.41-1.31-1.18-1.31-1.18l.09,1.69c-.58.3-1.11.67-1.59,1.1-.58-.22-1.4-.51-1.4-.51l.61,1.33c-.36.43-.68.9-.94,1.4-.61,0-1.65.03-1.65.03l1.16,1.13c-.21.63-.33,1.29-.37,1.98-.57.25-1.43.67-1.43.67l1.45.54c.07.7.23,1.37.46,2-.42.45-1.01,1.13-1.01,1.13l1.51-.08c.28.51.62.98,1.01,1.41-.22.57-.49,1.35-.49,1.35l1.28-.59c.41.34.86.65,1.34.9,0,.62.03,1.47.03,1.47l.99-1.02c.67.24,1.39.39,2.13.44.25.56.63,1.34.63,1.34l.5-1.35c.69-.06,1.35-.2,1.98-.43.45.42,1.17,1.05,1.17,1.05l-.08-1.53c.42-.23.82-.5,1.19-.8.51.21,1.73.64,1.73.64l-.74-1.61c.33-.39.63-.81.88-1.25.61,0,1.68-.03,1.68-.03l-1.15-1.12c.21-.59.36-1.21.43-1.86h0ZM14.35,17.04l-.83-2.38-.87,2.08c-.03.07-.13.06-.15,0l-.38-1.18-.47,1.26c-.02.06-.11.06-.13,0l-.29-1.25-.44,1.16c-.02.05-.1.05-.12,0l-.44-1.16-.29,1.25c-.01.07-.11.07-.13,0l-.47-1.26-.38,1.18c-.02.07-.12.07-.15,0l-.87-2.08-.84,2.39c-2.09-1.24-3.5-3.52-3.5-6.13,0-1.72.61-3.3,1.62-4.52l.08.04s1.17,3.06,1.23,2.7c.06-.31,1.08-2.92,1.36-3.63.02-.06.1-.05.11,0,.13.51.52,1.93.65,1.67.14-.27.54-1.39.66-1.74.01-.04.06-.04.08,0,.15.4.68,1.8.68,1.74,0-.04.37-1.12.67-1.99.01-.04.08-.04.09,0,.3.87.67,1.95.67,1.99,0,.05.52-1.32.68-1.73.01-.04.07-.04.09,0,.13.36.52,1.47.66,1.73.14.26.51-1.12.65-1.65.02-.06.1-.07.13,0,.29.73,1.29,3.3,1.35,3.61.06.34,1.09-2.34,1.22-2.67.98,1.22,1.56,2.77,1.56,4.45,0,2.6-1.4,4.88-3.48,6.12h0Z"/>
</svg>