<?xml version="1.0" encoding="UTF-8"?>
<svg id="Layer_1" data-name="Layer 1" xmlns="http://www.w3.org/2000/svg" viewBox="0 0 21.5 21.5">
  <defs>
    <style>
      .cls-1 {
        fill: #fff;
      }

      .cls-2 {
        fill: #2563eb;
        stroke: #1e40af;
        stroke-width: 1.5px;
      }
    </style>
  </defs>
  <circle class="cls-2" cx="10.75" cy="10.75" r="10"/>
  <g id="g8">
    <path id="path2" class="cls-1" d="M10.82,1.54c-.06,0-.11,0-.17,0v1.57l-.92.09v1.33c-.45.07-.89.19-1.31.36l-.7-1.13c-.22.06-.52.17-.85.36-.33.2-.58.42-.74.59,0,0,.46.73.7,1.1-.37.29-.7.62-.99.98l-1.2-.63c-.17.18-.36.42-.54.74-.19.34-.29.65-.36.89.37.22.75.45,1.12.68-.16.41-.28.83-.35,1.28l-1.4.12c-.03.25-.05.52-.05.82,0,.35.02.67.05.95.46.02.92.04,1.38.07.07.48.2.94.37,1.38l-1.13.6c.05.21.14.48.29.76.21.4.46.69.65.88l1.11-.65c.29.37.62.7.99,1l-.67,1.13c.2.15.42.31.67.47.33.21.65.37.94.49.22-.38.45-.76.68-1.14.43.17.88.3,1.35.37v1.24c.2.08.49.17.84.12.02,0,.05,0,.07-.01v1.63c.06,0,.11,0,.17,0,5.08,0,9.21-4.12,9.21-9.21S15.91,1.54,10.82,1.54ZM17.58,13.9c-.21.46-.48.9-.78,1.3l-1.2-.61c-.18.1-.37.3-.58.49-.24.21-.43.35-.56.53.08.15.17.31.25.46.14.26.3.57.41.78-.43.31-.89.57-1.38.78l-.69-1.1c-.25.05-.52.13-.8.2-.26.07-.5.12-.73.19v1.26c-.24.02-.48.03-.72.03h-.08v-2.55l-.16.04v-.46h-.16l-.02.49h-.39l-.02-.48-.16.02-.04.46h-.48l-.04-.48h-.24s-.13.48-.13.48h-.28s.1-1.37.2-1.55c.14-.24-.75.22-1.03,0-.16-.13-1.29-1.66-.45-2.63.21-.24-.82-2.03-.28-3.62.64-1.86,2.52-2.15,3.33-2.19,0,0,.07,0,.19,0h0v7.32s.02-.01.04-.02c.07.04.13.08.17.12.35.35.36.83.35,1.06,0,.03-.04.04-.06.02-.05-.06-.11-.13-.2-.2-.1-.07-.19-.11-.26-.14-.01,0-.02.01-.04.01v1.32h.16l.02.49h.39l.02-.48.16.02.04.46h.48l.04-.48h.24s.13.48.13.48h.28s-.1-1.37-.2-1.55c-.14-.24.75.22,1.03,0,.16-.13,1.29-1.66.45-2.63-.21-.24.82-2.03.28-3.62-.64-1.86-2.52-2.15-3.33-2.19v-2.45h.05c.21,0,.41,0,.62.02l.1,1.21c.19.08.42.12.65.18.33.1.61.19.88.22.24-.34.49-.68.74-1.02.43.19.85.42,1.23.69l-.57,1.2c.14.19.35.39.57.6.2.19.37.37.55.5.42-.17.84-.34,1.27-.52.29.4.54.83.75,1.28l-1.18.7c.04.24.12.5.2.78.09.31.18.59.29.84h1.32c.03.26.04.52.04.78s-.01.53-.04.79h-1.3c-.11.19-.19.44-.29.73-.12.35-.21.64-.22.88.39.25.77.49,1.16.74h0ZM11.14,12.41c.22-.11.49-.23.81-.33.39-.12.74-.18,1.03-.2.01,0,.03,0,.04,0,.23.09.31.23.33.27.13.28-.04.72-.49,1.01-.01,0-.02.01-.04.01-.21.03-.71.07-1.23-.22-.21-.12-.37-.27-.48-.39-.04-.05-.03-.12.03-.15Z"/>
    <path id="path4" class="cls-1" d="M10.09,14.23s.04.04.06.02c.05-.06.11-.13.2-.2.08-.06.16-.1.22-.12v-.86c-.05.03-.1.07-.14.1-.35.35-.36.83-.35,1.06h0Z"/>
    <path id="path6" class="cls-1" d="M10.03,12.41c-.22-.11-.49-.23-.81-.33-.39-.12-.74-.18-1.03-.2-.01,0-.03,0-.04,0-.24.09-.31.23-.33.27-.13.28.04.72.49,1.01.01,0,.02.01.04.01.21.03.71.07,1.23-.22.21-.12.37-.27.48-.39.04-.05.03-.12-.03-.15h0Z"/>
  </g>
</svg>